<?xml version="1.0" standalone="no"?>
<!DOCTYPE svg PUBLIC "-//W3C//DTD SVG 20010904//EN"
 "http://www.w3.org/TR/2001/REC-SVG-20010904/DTD/svg10.dtd">
<svg version="1.0" xmlns="http://www.w3.org/2000/svg"
 width="1204.000000pt" height="1192.000000pt" viewBox="0 0 1204.000000 1192.000000"
 preserveAspectRatio="xMidYMid meet">

<g transform="translate(0.000000,1192.000000) scale(0.100000,-0.100000)"
fill="#000000" stroke="none">
<path d="M5810 11384 c-30 -2 -127 -8 -215 -14 -1038 -71 -2118 -493 -2960
-1159 -917 -725 -1578 -1711 -1894 -2826 -487 -1715 -115 -3569 992 -4950 184
-229 485 -543 692 -722 899 -777 1977 -1231 3170 -1334 181 -16 720 -16 900 0
924 80 1754 360 2526 852 487 310 963 740 1336 1204 843 1052 1273 2402 1192
3752 -46 783 -235 1486 -586 2188 -414 824 -1090 1582 -1873 2100 -773 510
-1674 823 -2580 895 -134 11 -609 20 -700 14z m2189 -2701 c47 -36 66 -71 66
-123 0 -55 -21 -91 -75 -127 -104 -71 -251 47 -211 170 13 38 53 80 91 96 34
15 98 6 129 -16z m-4859 -28 c288 -34 514 -124 713 -283 123 -98 230 -269 278
-447 33 -118 33 -355 1 -475 -41 -150 -122 -291 -229 -395 -202 -197 -576
-330 -990 -352 l-113 -6 0 -414 0 -413 -452 0 -451 0 8 1258 c4 691 10 1288
14 1326 l6 70 85 23 c367 101 823 145 1130 108z m2069 -477 c84 -227 156 -416
160 -420 3 -4 82 181 175 412 l169 420 41 0 c46 0 879 -59 882 -63 0 -1 -203
-335 -453 -742 l-454 -740 5 -290 c4 -159 9 -410 13 -557 l6 -268 -498 0 -498
0 6 268 c4 147 10 395 13 552 l6 285 -355 715 c-195 393 -353 717 -351 719 4
5 899 118 945 120 l36 1 152 -412z m4555 -142 c195 -96 304 -336 322 -711 22
-447 -108 -754 -365 -857 -56 -23 -57 -23 -688 -26 l-633 -3 0 -54 0 -55 408
-2 407 -3 0 -215 c0 -253 -7 -280 -86 -359 -121 -118 -364 -181 -699 -183
-429 -2 -715 103 -810 297 l-25 50 -3 440 c-2 304 0 459 8 500 30 151 116 247
284 313 35 14 117 17 561 22 582 7 571 6 684 81 74 49 125 117 160 212 25 70
26 81 29 330 l4 259 191 -4 c188 -3 193 -4 251 -32z m-5391 -2813 c3 -7 -98
-1303 -117 -1500 l-7 -63 346 0 345 0 0 -37 c-1 -72 -66 -712 -73 -720 -8 -8
-1424 -120 -1430 -113 -2 4 39 1937 52 2418 l1 22 439 0 c242 0 442 -3 444 -7z
m5539 -67 c202 -18 371 -35 374 -39 8 -8 -384 -2278 -394 -2288 -7 -7 -962
-33 -967 -27 -1 2 -46 248 -99 548 -54 300 -101 558 -104 573 -5 21 -36 -119
-110 -499 -57 -291 -105 -530 -106 -531 -9 -9 -957 -36 -965 -27 -12 13 -406
2172 -397 2181 8 8 828 85 834 78 3 -2 42 -300 88 -661 46 -361 85 -658 87
-660 2 -2 45 225 96 504 51 279 102 555 113 615 l20 107 334 0 c184 0 334 -3
334 -6 0 -16 251 -1202 259 -1224 9 -25 9 -25 10 -2 1 13 30 330 66 704 36
375 65 685 65 689 0 4 21 6 48 3 26 -3 212 -20 414 -38z m-6482 -12 c0 -57
-29 -536 -35 -570 l-5 -30 -253 -12 c-138 -7 -300 -15 -359 -19 l-108 -6 0
-109 0 -108 314 0 314 0 -5 -62 c-2 -35 -10 -152 -17 -260 -7 -109 -14 -200
-17 -202 -2 -2 -136 -8 -298 -13 l-293 -8 1 -471 2 -471 -218 -6 c-120 -4
-316 -7 -435 -7 l-217 0 5 108 c2 59 13 532 24 1052 11 520 23 1009 26 1088
l6 142 784 0 784 0 0 -36z m2810 -8 c370 -56 642 -252 791 -570 111 -237 135
-552 63 -825 -104 -399 -413 -707 -800 -797 -62 -15 -116 -19 -249 -18 -151 1
-181 4 -270 27 -385 103 -670 395 -776 794 -29 110 -37 336 -15 459 45 263
155 473 339 651 247 239 557 333 917 279z"/>
<path d="M2915 7887 c-59 -12 -60 -12 -66 -52 -4 -22 -10 -154 -14 -292 l-7
-253 68 0 c230 1 388 123 402 311 7 100 -11 153 -72 214 -73 73 -182 98 -311
72z"/>
<path d="M5967 4389 c-192 -45 -299 -259 -241 -483 47 -183 176 -287 338 -274
202 17 343 226 307 452 -36 225 -204 352 -404 305z"/>
</g>
</svg>
